<svg width="16" height="17" viewBox="0 0 16 17" fill="none" xmlns="http://www.w3.org/2000/svg">
<path d="M0 12.9171V16.25H3.33287L13.1626 6.42025L9.82975 3.08738L0 12.9171ZM15.74 3.84283C16.0867 3.49622 16.0867 2.93629 15.74 2.58968L13.6603 0.509964C13.3137 0.163345 12.7538 0.163345 12.4072 0.509964L10.7807 2.1364L14.1136 5.46928L15.74 3.84283Z" fill="#EBEEEF"/>
<path d="M0 12.9171V16.25H3.33287L13.1626 6.42025L9.82975 3.08738L0 12.9171ZM15.74 3.84283C16.0867 3.49622 16.0867 2.93629 15.74 2.58968L13.6603 0.509964C13.3137 0.163345 12.7538 0.163345 12.4072 0.509964L10.7807 2.1364L14.1136 5.46928L15.74 3.84283Z" fill="black" fill-opacity="0.2"/>
</svg>
