<svg width="48" height="49" viewBox="0 0 48 49" fill="none" xmlns="http://www.w3.org/2000/svg">
<path fill-rule="evenodd" clip-rule="evenodd" d="M23.8921 0.0136719C12.8464 0.0136692 3.89209 8.96797 3.89209 20.0137C3.89209 31.0594 12.8464 40.0137 23.8921 40.0137C34.9378 40.0137 43.8921 31.0594 43.8921 20.0137C43.8921 8.96798 34.9378 0.0136719 23.8921 0.0136719ZM20.8211 15.7707L24.7839 19.7335C24.9387 19.8882 24.9387 20.1391 24.7839 20.2939L20.8211 24.2567C20.4306 24.6471 20.4306 25.2802 20.8211 25.6707C21.2116 26.0611 21.8446 26.0611 22.2351 25.6707L27.4758 20.43C27.7057 20.2001 27.7057 19.8273 27.4758 19.5973L22.2351 14.3567C21.8446 13.9662 21.2116 13.9662 20.8211 14.3567C20.4306 14.7471 20.4306 15.3802 20.8211 15.7707Z" fill="white" fill-opacity="0.7"/>
<g filter="url(#filter0_d_910:3862)">
<circle cx="24.001" cy="20.0137" r="19.5" stroke="white" shape-rendering="crispEdges"/>
</g>
<defs>
<filter id="filter0_d_910:3862" x="0.000976562" y="0.0136719" width="48" height="48" filterUnits="userSpaceOnUse" color-interpolation-filters="sRGB">
<feFlood flood-opacity="0" result="BackgroundImageFix"/>
<feColorMatrix in="SourceAlpha" type="matrix" values="0 0 0 0 0 0 0 0 0 0 0 0 0 0 0 0 0 0 127 0" result="hardAlpha"/>
<feOffset dy="4"/>
<feGaussianBlur stdDeviation="2"/>
<feComposite in2="hardAlpha" operator="out"/>
<feColorMatrix type="matrix" values="0 0 0 0 0 0 0 0 0 0 0 0 0 0 0 0 0 0 0.25 0"/>
<feBlend mode="normal" in2="BackgroundImageFix" result="effect1_dropShadow_910:3862"/>
<feBlend mode="normal" in="SourceGraphic" in2="effect1_dropShadow_910:3862" result="shape"/>
</filter>
</defs>
</svg>
