<svg width="48" height="49" viewBox="0 0 48 49" fill="none" xmlns="http://www.w3.org/2000/svg">
<g opacity="0.5">
<path fill-rule="evenodd" clip-rule="evenodd" d="M24.1084 0.0136719C35.1541 0.0136692 44.1084 8.96797 44.1084 20.0137C44.1084 31.0594 35.1541 40.0137 24.1084 40.0137C13.0627 40.0137 4.1084 31.0594 4.1084 20.0137C4.10839 8.96798 13.0627 0.0136719 24.1084 0.0136719ZM27.1794 15.7707L23.2166 19.7335C23.0618 19.8882 23.0618 20.1391 23.2166 20.2939L27.1794 24.2567C27.5699 24.6471 27.5699 25.2802 27.1794 25.6707C26.7889 26.0611 26.1559 26.0611 25.7654 25.6707L20.5247 20.43C20.2948 20.2001 20.2948 19.8273 20.5247 19.5973L25.7654 14.3567C26.1559 13.9662 26.7889 13.9662 27.1794 14.3567C27.5699 14.7471 27.5699 15.3802 27.1794 15.7707Z" fill="white" fill-opacity="0.7"/>
<g filter="url(#filter0_d_910:3868)">
<circle r="19.5" transform="matrix(-1 0 0 1 24 20.0137)" stroke="white" shape-rendering="crispEdges"/>
</g>
</g>
<defs>
<filter id="filter0_d_910:3868" x="0" y="0.0136719" width="48" height="48" filterUnits="userSpaceOnUse" color-interpolation-filters="sRGB">
<feFlood flood-opacity="0" result="BackgroundImageFix"/>
<feColorMatrix in="SourceAlpha" type="matrix" values="0 0 0 0 0 0 0 0 0 0 0 0 0 0 0 0 0 0 127 0" result="hardAlpha"/>
<feOffset dy="4"/>
<feGaussianBlur stdDeviation="2"/>
<feComposite in2="hardAlpha" operator="out"/>
<feColorMatrix type="matrix" values="0 0 0 0 0 0 0 0 0 0 0 0 0 0 0 0 0 0 0.25 0"/>
<feBlend mode="normal" in2="BackgroundImageFix" result="effect1_dropShadow_910:3868"/>
<feBlend mode="normal" in="SourceGraphic" in2="effect1_dropShadow_910:3868" result="shape"/>
</filter>
</defs>
</svg>
