<svg width="22" height="22" viewBox="0 0 22 22" fill="none" xmlns="http://www.w3.org/2000/svg">
<path d="M17.031 15.617L20.6064 19.1916C20.9972 19.5823 20.9972 20.2158 20.6065 20.6065V20.6065C20.2158 20.9972 19.5823 20.9972 19.1916 20.6064L15.617 17.031C14.0237 18.3082 12.042 19.0029 10 19C5.032 19 1 14.968 1 10C1 5.032 5.032 1 10 1C14.968 1 19 5.032 19 10C19.0029 12.042 18.3082 14.0237 17.031 15.617ZM15.025 14.875C16.2941 13.5699 17.0029 11.8204 17 10C17 6.132 13.867 3 10 3C6.132 3 3 6.132 3 10C3 13.867 6.132 17 10 17C11.8204 17.0029 13.5699 16.2941 14.875 15.025L15.025 14.875Z" fill="#515A6E" stroke="#515A6E" stroke-width="0.1"/>
</svg>
