<svg width="59" height="57" viewBox="0 0 59 57" fill="none" xmlns="http://www.w3.org/2000/svg">
<path d="M29.4834 1.26205L30.2212 1.60239C30.221 1.60284 30.2208 1.60328 30.2206 1.60373L30.2212 1.60239L29.4834 1.26205ZM29.4834 1.26205L28.7457 1.60239C28.7459 1.60284 28.7461 1.60328 28.7463 1.60373L28.7457 1.60239L29.4834 1.26205ZM27.896 45.0133L13.2319 53.2217L16.5066 36.7383C16.7268 35.6297 16.3552 34.4862 15.5254 33.7188L3.18565 22.3085L19.8749 20.3292C20.9972 20.1961 21.9698 19.4894 22.4432 18.4632L29.4834 3.20172L36.5237 18.4632L38.3681 17.6123L36.5237 18.4632C36.9971 19.4894 37.9697 20.196 39.092 20.3292L55.7812 22.3085L43.4415 33.7188C42.6117 34.4862 42.2401 35.6297 42.4603 36.7383L45.7349 53.2217L31.0709 45.0133C30.0846 44.4612 28.8823 44.4612 27.896 45.0133ZM11.6949 54.082C11.6953 54.0818 11.6957 54.0816 11.6961 54.0814L11.6949 54.082Z" stroke="#FFDD75" stroke-width="4.0625"/>
</svg>
