<svg width="60" height="57" viewBox="0 0 60 57" fill="none" xmlns="http://www.w3.org/2000/svg">
<path d="M30.8286 46.7858C30.4588 46.5787 30.0079 46.5787 29.638 46.7858L13.437 55.8545C12.5295 56.3625 11.4436 55.5736 11.6463 54.5535L15.2641 36.3425C15.3467 35.9268 15.2074 35.498 14.8962 35.2102L1.26313 22.6039C0.499547 21.8979 0.91426 20.6213 1.94702 20.4988L20.3855 18.312C20.8064 18.2621 21.1711 17.9971 21.3486 17.6123L29.1267 0.75153C29.5623 -0.192781 30.9044 -0.192783 31.34 0.751529L39.118 17.6123C39.2955 17.9971 39.6603 18.2621 40.0811 18.312L58.5196 20.4988C59.5524 20.6213 59.9671 21.8979 59.2035 22.6039L45.5705 35.2102C45.2593 35.498 45.1199 35.9268 45.2025 36.3425L48.8204 54.5535C49.023 55.5736 47.9372 56.3625 47.0297 55.8545L30.8286 46.7858Z" fill="#FFDD75"/>
</svg>
